<mxfile host="app.diagrams.net" modified="2024-08-04T17:22:45.502Z" agent="Mozilla/5.0 (Windows NT 10.0; Win64; x64) AppleWebKit/537.36 (KHTML, like Gecko) Chrome/126.0.0.0 Safari/537.36" version="24.7.1" etag="5cnX3jUEh4HBAhstSL_w" type="github">
  <diagram name="Сторінка-1" id="MMcdNjoaxUphPW9_M9oQ">
    <mxGraphModel>
      <root>
        <mxCell id="0" />
        <mxCell id="1" parent="0" />
      </root>
    </mxGraphModel>
  </diagram>
</mxfile>
